<svg width="14" height="13" viewBox="0 0 14 13" fill="none" xmlns="http://www.w3.org/2000/svg">
<path d="M6.8291 12.3789C7.62891 12.3789 8.29883 12.2559 8.96191 12.0166L8.49707 10.7725C7.97754 10.9365 7.47852 11.0391 6.84277 11.0391C4.21094 11.0391 1.98926 9.34375 1.98926 6.41797C1.98926 3.68359 3.93066 1.48926 6.95898 1.48926C10.0078 1.48926 11.8193 3.74512 11.8193 6.24707C11.8193 7.59375 11.2998 9.15918 9.89844 9.15918C9.39258 9.15918 9.25586 8.96094 9.25586 8.38672C9.25586 7.04688 9.99414 4.6543 10.2881 3.08203H8.94824L8.81836 3.66992C8.49707 3.13672 7.89551 2.74707 7.04102 2.74707C4.92871 2.74707 3.72559 5.12598 3.72559 6.96484C3.72559 8.40723 4.46387 9.70605 6.02246 9.70605C6.71973 9.70605 7.45117 9.43945 8.02539 8.90625C8.05273 9.15918 8.10742 9.37109 8.18945 9.56934C8.46973 10.1709 9.05762 10.5195 9.93945 10.5195C12.0928 10.5195 13.1182 8.38672 13.1182 6.27441C13.1182 3.05469 10.7666 0.210938 6.94531 0.210938C3.19238 0.210938 0.683594 2.97266 0.683594 6.44531C0.683594 10.0957 3.45898 12.3789 6.8291 12.3789ZM6.13184 8.37305C5.33203 8.37305 4.9834 7.87402 4.9834 7.01953C4.9834 5.72754 5.76953 4.08008 7.23926 4.08008C8.05273 4.08008 8.37402 4.5791 8.37402 5.40625C8.37402 6.71191 7.58789 8.37305 6.13184 8.37305Z" fill="white"/>
</svg>
