<svg width="40" height="40" viewBox="0 0 40 40" fill="none" xmlns="http://www.w3.org/2000/svg">
<g opacity="0.5">
<path d="M12.2929 13H28.2929M23 19H28.2929M23 23H28.2929M23 27H28.2929M12 20C12 19.7348 12.1054 19.4804 12.2929 19.2929C12.4804 19.1054 12.7348 19 13 19H19C19.2652 19 19.5196 19.1054 19.7071 19.2929C19.8946 19.4804 20 19.7348 20 20V26C20 26.2652 19.8946 26.5196 19.7071 26.7071C19.5196 26.8946 19.2652 27 19 27H13C12.7348 27 12.4804 26.8946 12.2929 26.7071C12.1054 26.5196 12 26.2652 12 26V20Z" stroke="white" stroke-width="2" stroke-linecap="round" stroke-linejoin="round"/>
</g>
</svg>
