<svg width="40" height="40" viewBox="0 0 40 40" fill="none" xmlns="http://www.w3.org/2000/svg">
<path d="M13.121 25.804C15.2194 24.6179 17.5896 23.9963 20 24C22.5 24 24.847 24.655 26.879 25.804M23 18C23 18.7956 22.6839 19.5587 22.1213 20.1213C21.5587 20.6839 20.7956 21 20 21C19.2044 21 18.4413 20.6839 17.8787 20.1213C17.3161 19.5587 17 18.7956 17 18C17 17.2044 17.3161 16.4413 17.8787 15.8787C18.4413 15.3161 19.2044 15 20 15C20.7956 15 21.5587 15.3161 22.1213 15.8787C22.6839 16.4413 23 17.2044 23 18ZM29 20C29 21.1819 28.7672 22.3522 28.3149 23.4442C27.8626 24.5361 27.1997 25.5282 26.364 26.364C25.5282 27.1997 24.5361 27.8626 23.4442 28.3149C22.3522 28.7672 21.1819 29 20 29C18.8181 29 17.6478 28.7672 16.5558 28.3149C15.4639 27.8626 14.4718 27.1997 13.636 26.364C12.8003 25.5282 12.1374 24.5361 11.6851 23.4442C11.2328 22.3522 11 21.1819 11 20C11 17.6131 11.9482 15.3239 13.636 13.636C15.3239 11.9482 17.6131 11 20 11C22.3869 11 24.6761 11.9482 26.364 13.636C28.0518 15.3239 29 17.6131 29 20Z" stroke="white" stroke-width="2" stroke-linecap="round" stroke-linejoin="round"/>
</svg>
