<svg width="8" height="11" viewBox="0 0 8 11" fill="none" xmlns="http://www.w3.org/2000/svg">
<path d="M4.00586 10.1094C5.85156 10.1094 7.3623 9.00879 7.3623 7.18359C7.3623 3.97754 2.68652 4.59277 2.68652 2.77441C2.68652 2.15918 3.21973 1.74219 3.90332 1.74219C4.55273 1.74219 5.12695 2.11816 5.46191 2.77441L6.9043 1.89258C6.24121 0.716797 5.1543 0.197266 3.96484 0.197266C2.33789 0.197266 0.950195 1.1543 0.950195 2.86328C0.950195 6.00781 5.62598 5.33789 5.62598 7.34082C5.62598 8.02441 5.06543 8.57129 4.0332 8.57129C3.00781 8.57129 2.15332 8.03809 2.03027 6.83496L0.307617 7.27246C0.615234 9.17285 2.29688 10.1094 4.00586 10.1094Z" fill="#2E8AF7"/>
</svg>
