<svg width="40" height="40" viewBox="0 0 40 40" fill="none" xmlns="http://www.w3.org/2000/svg">
<g opacity="0.5">
<path fill-rule="evenodd" clip-rule="evenodd" d="M18 14C16.9391 14 15.9217 14.4214 15.1716 15.1715C14.4214 15.9217 14 16.9391 14 18C14 19.0608 14.4214 20.0783 15.1716 20.8284C15.9217 21.5785 16.9391 22 18 22C19.0609 22 20.0783 21.5785 20.8284 20.8284C21.5786 20.0783 22 19.0608 22 18C22 16.9391 21.5786 15.9217 20.8284 15.1715C20.0783 14.4214 19.0609 14 18 14ZM12 18C11.9999 17.0557 12.2226 16.1247 12.6502 15.2827C13.0777 14.4407 13.6979 13.7116 14.4604 13.1545C15.2229 12.5974 16.1061 12.2282 17.0381 12.0768C17.9702 11.9254 18.9249 11.9962 19.8245 12.2833C20.724 12.5705 21.5432 13.0659 22.2152 13.7293C22.8872 14.3927 23.3931 15.2053 23.6919 16.1011C23.9906 16.9969 24.0737 17.9506 23.9343 18.8845C23.795 19.8185 23.4372 20.7064 22.89 21.476L27.707 26.293C27.8892 26.4816 27.99 26.7342 27.9877 26.9964C27.9854 27.2586 27.8802 27.5094 27.6948 27.6948C27.5094 27.8802 27.2586 27.9854 26.9964 27.9876C26.7342 27.9899 26.4816 27.8891 26.293 27.707L21.477 22.891C20.5794 23.5293 19.5233 23.9081 18.4247 23.9861C17.326 24.0641 16.2271 23.8381 15.2483 23.3329C14.2695 22.8278 13.4487 22.063 12.8757 21.1223C12.3028 20.1816 11.9998 19.1014 12 18Z" fill="white"/>
</g>
</svg>
